<?xml version="1.0" standalone="no"?>
<svg xmlns="http://www.w3.org/2000/svg" viewBox="0 0 124.128 36" width="124.128" height="36"><g fill="#a175bf" color="#a175bf" transform="translate(0 4) scale(0.5185186)"><svg width="54.0" height="54.0" x="0.0" y="0.0" viewBox="0 0 54 54"><path fill="currentColor" fill-rule="evenodd" d="M.855 53.98c-.7.18-1.224-.903-.525-1.264 5.77-2.166 8.392-4.333 9.966-6.679-6.119-4.513-6.818-9.75-1.924-15.888 4.72 2.89 6.294 9.028 3.671 13.902 2.973-3.973 5.07-8.305 7.343-12.638-6.294-5.054-6.993-11.555-2.098-19.316 4.545 3.972 5.245 10.11 2.448 18.775 2.271-4.152 4.545-8.125 8.217-11.554C23.757 10.832 25.155 4.334 32.148 0c1.922 6.138.7 12.457-3.67 18.956 1.747-1.625 7.167-5.235 9.09-5.957 3.845-6.5 9.264-8.305 16.432-5.416-1.922 7.22-9.964 10.47-16.083 6.68-5.769 2.528-9.44 5.957-12.412 9.748 5.07-3.79 11.013-4.874 18.008-3.068-3.847 7.763-10.141 9.026-18.533 3.792-2.973 3.971-5.07 8.665-7.518 13.178 3.847-5.237 9.267-7.041 16.085-5.777-3.497 6.499-8.917 8.484-16.085 5.777C13.792 44.232 9.595 50.37.855 53.98"></path></svg></g><path fill="#000000" fill-rule="nonzero" d="M0 19.37Q0.41 17.86 1.78 13.37L1.78 13.37Q3.24 8.64 5.09 2.42L5.09 2.42Q5.26 1.82 5.26 1.44L5.26 1.44Q5.26 0.89 4.90 0.89L4.90 0.89Q4.15 0.89 3.52 1.61Q2.88 2.33 2.50 3.34Q2.11 4.34 2.11 5.16L2.11 5.16Q2.11 5.64 2.23 6.00L2.23 6.00Q1.49 6.00 1.14 5.63Q0.79 5.26 0.79 4.63L0.79 4.63Q0.79 3.60 1.60 2.51Q2.40 1.42 3.54 0.71Q4.68 0 5.59 0L5.59 0Q6.48 0 7.02 1.00Q7.56 1.99 7.82 3.49Q8.09 4.99 8.38 7.49L8.38 7.49Q8.88 11.98 9.43 15.55L9.43 15.55Q9.74 13.51 10.55 10.39Q11.35 7.27 12.20 4.50Q13.06 1.73 13.30 1.18L13.30 1.18Q13.46 0.79 13.90 0.40Q14.33 0 14.81 0L14.81 0Q13.94 2.28 12.82 6.24Q11.69 10.20 10.87 13.91Q10.06 17.62 10.03 19.37L10.03 19.37Q9.26 19.37 8.81 18.92Q8.35 18.48 8.16 17.42L8.16 17.42Q7.85 15.74 7.14 11.03Q6.43 6.31 5.98 3.14L5.98 3.14Q3.74 11.18 2.86 14.11Q1.97 17.04 1.36 18.20Q0.74 19.37 0 19.37L0 19.37ZM15.26 18.05Q14.28 18.05 13.82 17.45Q13.37 16.85 13.37 15.86L13.37 15.86Q13.37 14.88 13.78 13.80Q14.18 12.72 14.83 12Q15.48 11.28 16.13 11.28L16.13 11.28Q16.34 11.28 16.63 11.40L16.63 11.40Q16.34 11.64 15.94 12.46Q15.53 13.27 15.23 14.20Q14.93 15.12 14.93 15.70L14.93 15.70Q14.93 17.06 15.79 17.06L15.79 17.06Q16.30 17.06 16.99 16.54Q17.69 16.01 18.36 15.14L18.36 15.14Q17.69 14.59 17.32 13.70Q16.94 12.82 16.94 11.86L16.94 11.86Q16.94 10.61 17.58 9.72Q18.22 8.83 19.30 8.83L19.30 8.83Q20.21 8.83 20.58 9.32Q20.95 9.82 20.95 10.68L20.95 10.68Q20.95 11.59 20.51 12.73Q20.06 13.87 19.34 14.95L19.34 14.95Q19.78 15.19 20.26 15.19L20.26 15.19Q20.95 15.19 21.70 14.77Q22.44 14.35 22.82 13.46L22.82 13.46L23.11 13.70Q22.66 14.76 21.82 15.26Q20.98 15.77 20.09 15.77L20.09 15.77Q19.44 15.77 18.94 15.53L18.94 15.53Q18.07 16.66 17.10 17.35Q16.13 18.05 15.26 18.05L15.26 18.05ZM18.79 14.52Q19.42 13.58 19.80 12.61Q20.18 11.64 20.18 10.82L20.18 10.82Q20.18 10.15 19.98 9.82Q19.78 9.48 19.46 9.48L19.46 9.48Q19.13 9.48 18.78 9.80Q18.43 10.13 18.20 10.69Q17.98 11.26 17.98 11.93L17.98 11.93Q17.98 12.67 18.18 13.36Q18.38 14.04 18.79 14.52L18.79 14.52ZM23.93 18.22Q23.21 18.22 22.91 17.53Q22.61 16.85 22.61 15.58L22.61 15.58Q22.61 15.12 22.75 12.43L22.75 12.43Q22.80 11.71 22.92 11.51Q23.04 11.30 23.52 11.30L23.52 11.30Q23.93 11.30 24.04 11.46Q24.14 11.62 24.14 12.07L24.14 12.07Q24.14 12.55 24.05 13.85L24.05 13.85Q23.93 15 23.93 15.94L23.93 15.94Q23.93 16.66 24.05 16.97Q24.17 17.28 24.48 17.28L24.48 17.28Q25.27 17.28 26.40 15.66Q27.53 14.04 28.44 12.02L28.44 12.02Q28.49 10.51 28.76 9.91Q29.04 9.31 29.54 9.31L29.54 9.31Q29.95 9.31 30.18 9.61Q30.41 9.91 30.41 10.22L30.41 10.22Q30.41 10.46 30.17 10.90L30.17 10.90Q29.88 11.45 29.72 11.99Q29.57 12.53 29.57 13.44L29.57 13.44Q29.57 14.23 29.80 14.75Q30.02 15.26 30.70 15.26L30.70 15.26Q31.22 15.26 31.68 14.86Q32.14 14.45 32.59 13.49L32.59 13.49L32.90 13.73Q32.04 15.74 30.53 15.74L30.53 15.74Q29.71 15.74 29.20 15.16Q28.68 14.57 28.51 13.42L28.51 13.42Q27.53 15.38 26.27 16.80Q25.01 18.22 23.93 18.22L23.93 18.22ZM33.29 18.41Q32.50 18.41 32.00 17.89Q31.51 17.38 31.51 16.42L31.51 16.42Q31.51 15 32.53 13.25Q33.55 11.50 35.11 10.27Q36.67 9.05 38.16 9.05L38.16 9.05Q39.10 9.05 39.72 9.55Q40.34 10.06 40.34 10.85L40.34 10.85Q40.34 11.40 40.03 11.64Q39.72 11.88 39.17 11.88L39.17 11.88Q39.29 11.45 39.29 11.04L39.29 11.04Q39.29 10.44 39 10.07Q38.71 9.70 38.11 9.70L38.11 9.70Q37.06 9.70 35.89 10.87Q34.73 12.05 33.95 13.68Q33.17 15.31 33.17 16.49L33.17 16.49Q33.17 17.42 33.82 17.42L33.82 17.42Q34.78 17.42 36.07 15.90Q37.37 14.38 38.86 12.19L38.86 12.19Q39.17 12.24 39.49 12.40Q39.82 12.55 39.82 12.79L39.82 12.79Q39.82 12.98 39.59 13.40Q39.36 13.82 39.31 13.90L39.31 13.90Q38.90 14.59 38.66 15.13Q38.42 15.67 38.42 16.13L38.42 16.13Q38.42 16.54 38.63 16.86Q38.83 17.18 39.24 17.18L39.24 17.18Q39.94 17.18 40.99 16.19Q42.05 15.19 43.08 13.39L43.08 13.39L43.32 13.63Q42.82 14.90 42.02 15.90Q41.23 16.90 40.32 17.45Q39.41 18 38.57 18L38.57 18Q37.73 18 37.28 17.51Q36.84 17.02 36.84 16.32L36.84 16.32Q36.84 16.01 36.91 15.62L36.91 15.62Q35.83 17.06 34.98 17.74Q34.13 18.41 33.29 18.41L33.29 18.41ZM46.25 19.37Q45.24 19.30 44.93 18.84Q44.62 18.38 44.62 17.47L44.62 17.47Q44.62 16.46 45.10 14.93Q45.58 13.39 46.58 10.63L46.58 10.63Q46.73 10.30 46.97 9.62L46.97 9.62Q46.37 9.67 45.12 9.84L45.12 9.84L44.30 9.96Q44.40 8.38 47.45 8.28L47.45 8.28Q49.01 3.98 50.23 1.44L50.23 1.44Q49.61 1.39 49.30 1.39L49.30 1.39Q47.76 1.39 46.93 1.70Q46.10 2.02 45.78 2.64Q45.46 3.26 45.46 4.32L45.46 4.32Q45.46 5.30 45.77 6.22L45.77 6.22Q44.18 5.95 44.18 4.34L44.18 4.34Q44.18 3.12 45.06 2.16Q45.94 1.20 47.45 0.66Q48.96 0.12 50.78 0.12L50.78 0.12Q51.67 0.12 53.30 0.31L53.30 0.31Q53.54 0.34 54.26 0.41Q54.98 0.48 55.56 0.48L55.56 0.48Q56.52 0.48 57.34 0.24L57.34 0.24Q56.50 1.20 55.90 1.56Q55.30 1.92 54.62 1.92L54.62 1.92Q54.17 1.92 52.99 1.75L52.99 1.75Q52.39 1.63 51.22 1.51L51.22 1.51Q50.54 3.14 48.91 8.30L48.91 8.30Q50.06 8.38 51.07 8.52L51.07 8.52Q52.58 8.66 53.11 8.69L53.11 8.69Q52.85 9.07 52.48 9.23Q52.10 9.38 51.32 9.43Q50.54 9.48 48.55 9.53L48.55 9.53L47.50 13.10Q46.30 17.14 46.25 19.37L46.25 19.37ZM56.16 18Q55.18 18 54.71 17.33Q54.24 16.66 54.24 15.53L54.24 15.53Q54.24 13.37 55.73 9.66Q57.22 5.95 59.05 2.98Q60.89 0 61.70 0L61.70 0Q62.04 0 62.27 0.59Q62.50 1.18 62.50 1.78L62.50 1.78Q62.50 2.88 61.60 5.03Q60.70 7.18 59.23 9.38Q57.77 11.59 56.11 12.96L56.11 12.96Q55.80 14.35 55.80 15.38L55.80 15.38Q55.80 17.23 56.86 17.23L56.86 17.23Q57.74 17.23 58.67 16.10Q59.59 14.98 60.31 13.39L60.31 13.39L60.67 13.58Q58.61 18 56.16 18L56.16 18ZM56.33 12.14Q57.65 10.82 58.91 8.82Q60.17 6.82 60.96 4.98Q61.75 3.14 61.75 2.33L61.75 2.33Q61.75 1.94 61.58 1.94L61.58 1.94Q61.25 1.94 60.20 3.59Q59.16 5.23 58.06 7.61Q56.95 9.98 56.33 12.14L56.33 12.14ZM61.49 18.05Q60.50 18.05 60.05 17.45Q59.59 16.85 59.59 15.86L59.59 15.86Q59.59 14.88 60 13.80Q60.41 12.72 61.06 12Q61.70 11.28 62.35 11.28L62.35 11.28Q62.57 11.28 62.86 11.40L62.86 11.40Q62.57 11.64 62.16 12.46Q61.75 13.27 61.45 14.20Q61.15 15.12 61.15 15.70L61.15 15.70Q61.15 17.06 62.02 17.06L62.02 17.06Q62.52 17.06 63.22 16.54Q63.91 16.01 64.58 15.14L64.58 15.14Q63.91 14.59 63.54 13.70Q63.17 12.82 63.17 11.86L63.17 11.86Q63.17 10.61 63.80 9.72Q64.44 8.83 65.52 8.83L65.52 8.83Q66.43 8.83 66.80 9.32Q67.18 9.82 67.18 10.68L67.18 10.68Q67.18 11.59 66.73 12.73Q66.29 13.87 65.57 14.95L65.57 14.95Q66 15.19 66.48 15.19L66.48 15.19Q67.18 15.19 67.92 14.77Q68.66 14.35 69.05 13.46L69.05 13.46L69.34 13.70Q68.88 14.76 68.04 15.26Q67.20 15.77 66.31 15.77L66.31 15.77Q65.66 15.77 65.16 15.53L65.16 15.53Q64.30 16.66 63.32 17.35Q62.35 18.05 61.49 18.05L61.49 18.05ZM65.02 14.52Q65.64 13.58 66.02 12.61Q66.41 11.64 66.41 10.82L66.41 10.82Q66.41 10.15 66.20 9.82Q66 9.48 65.69 9.48L65.69 9.48Q65.35 9.48 65.00 9.80Q64.66 10.13 64.43 10.69Q64.20 11.26 64.20 11.93L64.20 11.93Q64.20 12.67 64.40 13.36Q64.61 14.04 65.02 14.52L65.02 14.52ZM72.74 17.90Q71.93 17.90 71.46 17.47Q70.99 17.04 70.99 16.34L70.99 16.34Q70.99 15.53 71.69 13.99L71.69 13.99Q72 13.20 72.16 12.73Q72.31 12.26 72.31 11.86L72.31 11.86Q72.31 11.26 72.04 10.91Q71.76 10.56 71.42 10.33Q71.09 10.10 70.97 10.03L70.97 10.03Q70.44 11.38 69.84 12.66Q69.24 13.94 68.83 14.64L68.83 14.64L68.62 14.23Q69.77 12 70.56 9.67L70.56 9.67Q70.32 9.43 70.32 9.10L70.32 9.10Q70.32 8.66 70.50 8.28Q70.68 7.90 70.93 7.68Q71.18 7.46 71.33 7.46L71.33 7.46Q71.66 7.46 71.66 8.04L71.66 8.04Q71.66 8.14 71.54 8.47Q71.42 8.81 71.40 8.93L71.40 8.93Q71.40 9.17 71.60 9.37Q71.81 9.58 72.26 9.89L72.26 9.89Q73.01 10.42 73.43 10.93Q73.85 11.45 73.85 12.26L73.85 12.26Q73.85 12.79 73.68 13.31Q73.51 13.82 73.18 14.66L73.18 14.66Q72.65 15.82 72.65 16.32L72.65 16.32Q72.65 17.04 73.37 17.04L73.37 17.04Q74.09 17.04 74.92 16.46Q75.74 15.89 76.44 15.04Q77.14 14.18 77.45 13.46L77.45 13.46L77.76 13.70Q77.02 15.36 75.60 16.63Q74.18 17.90 72.74 17.90L72.74 17.90ZM78.10 18.41Q77.30 18.41 76.81 17.89Q76.32 17.38 76.32 16.42L76.32 16.42Q76.32 15 77.34 13.25Q78.36 11.50 79.92 10.27Q81.48 9.05 82.97 9.05L82.97 9.05Q83.90 9.05 84.53 9.55Q85.15 10.06 85.15 10.85L85.15 10.85Q85.15 11.40 84.84 11.64Q84.53 11.88 83.98 11.88L83.98 11.88Q84.10 11.45 84.10 11.04L84.10 11.04Q84.10 10.44 83.81 10.07Q83.52 9.70 82.92 9.70L82.92 9.70Q81.86 9.70 80.70 10.87Q79.54 12.05 78.76 13.68Q77.98 15.31 77.98 16.49L77.98 16.49Q77.98 17.42 78.62 17.42L78.62 17.42Q79.58 17.42 80.88 15.90Q82.18 14.38 83.66 12.19L83.66 12.19Q83.98 12.24 84.30 12.40Q84.62 12.55 84.62 12.79L84.62 12.79Q84.62 12.98 84.40 13.40Q84.17 13.82 84.12 13.90L84.12 13.90Q83.71 14.59 83.47 15.13Q83.23 15.67 83.23 16.13L83.23 16.13Q83.23 16.54 83.44 16.86Q83.64 17.18 84.05 17.18L84.05 17.18Q84.74 17.18 85.80 16.19Q86.86 15.19 87.89 13.39L87.89 13.39L88.13 13.63Q87.62 14.90 86.83 15.90Q86.04 16.90 85.13 17.45Q84.22 18 83.38 18L83.38 18Q82.54 18 82.09 17.51Q81.65 17.02 81.65 16.32L81.65 16.32Q81.65 16.01 81.72 15.62L81.72 15.62Q80.64 17.06 79.79 17.74Q78.94 18.41 78.10 18.41L78.10 18.41Z" transform="translate(36, 8.316)"></path></svg>